<svg version="1.1" xmlns="http://www.w3.org/2000/svg" xmlns:xlink="http://www.w3.org/1999/xlink" width="512.000000pt" height="512.000000pt" viewBox="0,0,256,256"><g fill="#7f6757" fill-rule="nonzero" stroke="none" stroke-width="1" stroke-linecap="butt" stroke-linejoin="miter" stroke-miterlimit="10" stroke-dasharray="" stroke-dashoffset="0" font-family="none" font-weight="none" font-size="none" text-anchor="none" style="mix-blend-mode: normal"><g transform="translate(0.09021,0.02979) scale(0.5,0.5)"><g transform="translate(0,512) scale(0.1,-0.1)"><path d="M572,5109c-279,-47 -519,-292 -562,-575c-7,-47 -10,-687 -8,-2019l3,-1950l28,-80c79,-223 229,-373 452,-452l80,-28h1995h1995l80,28c231,82 390,248 462,482c17,57 18,148 18,2050v1990l-28,80c-79,223 -229,373 -452,452l-80,28l-1965,1c-1109,1 -1988,-2 -2018,-7zM1515,4145c127,-34 230,-120 288,-242c40,-86 49,-207 22,-299c-54,-186 -223,-314 -412,-314c-174,0 -327,95 -398,247c-157,331 146,700 500,608zM3477,3129c349,-39 558,-239 632,-605c34,-168 41,-319 41,-918v-578l-34,-34l-34,-34h-274c-254,0 -275,1 -305,20c-18,11 -35,30 -38,42c-2,13 -6,286 -8,608c-3,516 -5,592 -20,645c-27,94 -64,161 -113,204c-60,53 -118,71 -224,71c-77,0 -94,-4 -148,-30c-73,-37 -125,-92 -163,-174c-63,-136 -62,-127 -68,-758l-6,-577l-23,-23c-22,-23 -27,-23 -292,-26c-296,-3 -316,0 -339,55c-8,21 -11,289 -9,1031l3,1004l28,24l28,24h275c169,0 283,-4 294,-10c33,-18 44,-51 50,-148l5,-93l39,50c135,178 399,264 703,230zM1710,3072c19,-19 30,-43 35,-73c3,-24 5,-476 3,-1004c-3,-905 -4,-962 -21,-986c-32,-47 -54,-50 -335,-47l-262,3l-27,28l-28,27l-3,993c-1,545 0,1003 3,1015c3,13 18,35 32,48l26,24h274h275z"></path></g></g></g></svg>