<svg version="1.1" xmlns="http://www.w3.org/2000/svg" xmlns:xlink="http://www.w3.org/1999/xlink" width="512.000000pt" height="512.000000pt" viewBox="0,0,256,256"><g fill="#7f6757" fill-rule="nonzero" stroke="none" stroke-width="1" stroke-linecap="butt" stroke-linejoin="miter" stroke-miterlimit="10" stroke-dasharray="" stroke-dashoffset="0" font-family="none" font-weight="none" font-size="none" text-anchor="none" style="mix-blend-mode: normal"><g transform="translate(-0.125,0.125) scale(0.5,0.5)"><g transform="translate(0,512) scale(0.1,-0.1)"><path d="M1055,5110c-194,-40 -352,-179 -417,-368l-23,-67v-2115v-2115l23,-66c57,-166 185,-294 350,-351l67,-23h1505h1505l67,23c163,57 286,178 350,348l23,59l3,1592l2,1592l-647,3l-648,3l-55,26c-82,39 -135,90 -172,167l-33,67l-3,617l-3,618l-927,-1c-510,-1 -945,-5 -967,-9zM3700,3100c45,-23 80,-80 80,-130c0,-50 -35,-107 -80,-130c-39,-20 -56,-20 -1171,-20h-1131l-40,22c-101,57 -102,194 -2,254l39,24h1133c1116,0 1133,0 1172,-20zM3700,2300c45,-23 80,-80 80,-130c0,-50 -35,-107 -80,-130c-39,-20 -56,-20 -1171,-20h-1131l-40,22c-101,57 -102,194 -2,254l39,24h1133c1116,0 1133,0 1172,-20zM2236,1494c50,-37 68,-70 68,-124c0,-54 -18,-87 -68,-124c-26,-20 -41,-21 -432,-24l-405,-3l-41,23c-101,57 -102,193 -2,254l39,24l407,-2c393,-3 407,-4 434,-24z"></path><path d="M3250,4501c0,-486 2,-551 16,-565c14,-14 81,-16 595,-16h580l-12,23c-28,53 -86,111 -566,564c-458,434 -580,543 -605,543c-4,0 -8,-247 -8,-549z"></path></g></g></g></svg>