<svg version="1.1" xmlns="http://www.w3.org/2000/svg" xmlns:xlink="http://www.w3.org/1999/xlink" width="300.000000pt" height="260.000000pt" viewBox="0,0,256,221.8625"><g fill="#7f6757" fill-rule="nonzero" stroke="none" stroke-width="1" stroke-linecap="butt" stroke-linejoin="miter" stroke-miterlimit="10" stroke-dasharray="" stroke-dashoffset="0" font-family="none" font-weight="none" font-size="none" text-anchor="none" style="mix-blend-mode: normal"><g transform="translate(-0.384,-0.00208) scale(0.85333,0.85333)"><g transform="translate(0,260) scale(0.1,-0.1)"><path d="M381,1957c-204,-354 -371,-650 -371,-657c0,-7 167,-303 372,-656l371,-644h748h747l376,650l375,650l-374,648l-373,647l-750,3l-749,2zM1710,2061c168,-43 310,-139 395,-267c103,-155 149,-432 110,-657c-30,-170 -88,-289 -196,-397c-80,-82 -175,-139 -294,-179c-129,-43 -213,-51 -511,-51h-264v791v791l338,-5c305,-4 345,-6 422,-26z"></path><path d="M1270,1299v-482l143,6c109,4 156,10 202,26c126,45 210,128 257,256c19,52 22,80 22,205c0,125 -3,154 -23,209c-66,188 -198,261 -473,261h-128z"></path></g></g></g></svg>