<svg version="1.1" xmlns="http://www.w3.org/2000/svg" xmlns:xlink="http://www.w3.org/1999/xlink" width="512.000000pt" height="512.000000pt" viewBox="0,0,256,256"><g fill="#7f6757" fill-rule="nonzero" stroke="none" stroke-width="1" stroke-linecap="butt" stroke-linejoin="miter" stroke-miterlimit="10" stroke-dasharray="" stroke-dashoffset="0" font-family="none" font-weight="none" font-size="none" text-anchor="none" style="mix-blend-mode: normal"><g transform="translate(0,-0.01953) scale(0.5,0.5)"><g transform="translate(0,512) scale(0.1,-0.1)"><path d="M340,4344c-30,-8 -59,-19 -65,-25c-11,-11 2161,-2190 2207,-2215c35,-18 121,-18 156,0c46,25 2218,2204 2207,2215c-6,6 -37,17 -70,25c-53,14 -298,16 -2220,15c-1871,0 -2167,-2 -2215,-15z"></path><path d="M23,4048c-17,-50 -18,-123 -18,-1488c0,-1365 1,-1438 18,-1487c10,-29 22,-53 25,-53c4,0 354,347 777,770l770,770l-770,770c-423,424 -773,770 -777,770c-3,0 -15,-24 -25,-52z"></path><path d="M4295,3330l-770,-770l770,-770c423,-423 773,-770 777,-770c3,0 15,24 25,53c17,49 18,122 18,1487c0,1365 -1,1438 -18,1488c-10,28 -22,52 -25,52c-4,0 -354,-346 -777,-770z"></path><path d="M1030,1575c-495,-495 -761,-768 -755,-774c6,-6 37,-17 70,-25c53,-14 299,-16 2215,-16c1916,0 2162,2 2215,16c33,8 64,19 70,25c6,6 -260,279 -757,776l-767,767l-238,-235c-218,-216 -245,-239 -317,-275l-80,-39h-126h-126l-80,39c-72,36 -100,60 -315,273c-129,128 -237,233 -240,233c-2,0 -348,-344 -769,-765z"></path></g></g></g></svg>